<svg xmlns="http://www.w3.org/2000/svg" width="16" height="16" fill="none" viewBox="0 0 16 16"><path stroke="currentColor" stroke-linecap="round" stroke-linejoin="round" stroke-width="1.4" d="m10 10-2 2.5 2 2.5m3 0 2-2.5-2-2.5"/><path fill="currentColor" d="M2.5 1.75v11.5c0 .138.112.25.25.25h3.17a.75.75 0 1 1 0 1.5H2.75A1.75 1.75 0 0 1 1 13.25V1.75C1 .784 1.784 0 2.75 0h8.5C12.216 0 13 .784 13 1.75v5.736a.75.75 0 1 1-1.5 0V1.75a.25.25 0 0 0-.25-.25h-8.5a.25.25 0 0 0-.25.25M4.75 4h4.5a.75.75 0 0 1 0 1.5h-4.5a.75.75 0 0 1 0-1.5M4 7.75A.75.75 0 0 1 4.75 7h2a.75.75 0 0 1 0 1.5h-2A.75.75 0 0 1 4 7.75"/></svg>