<svg xmlns="http://www.w3.org/2000/svg" width="16" height="16" fill="currentColor" preserveAspectRatio="xMidYMin" viewBox="0 0 24 24"><path d="M12.56 10.72a.75.75 0 0 0-1.06 0L8 14.22a.75.75 0 1 0 1.06 1.06l2.22-2.22v5.19a.75.75 0 0 0 1.5 0v-5.19L15 15.28a.75.75 0 0 0 1.06-1.06z"/><path fill-rule="evenodd" d="M6 1.25A2.75 2.75 0 0 0 3.25 4v16A2.75 2.75 0 0 0 6 22.75h12A2.75 2.75 0 0 0 20.75 20V8a.75.75 0 0 0-.22-.53l-6-6a.75.75 0 0 0-.53-.22zm-.884 1.866A1.25 1.25 0 0 1 6 2.75h7.25V8c0 .414.336.75.75.75h5.25V20A1.25 1.25 0 0 1 18 21.25H6A1.25 1.25 0 0 1 4.75 20V4c0-.332.132-.65.366-.884M18.19 7.25l-3.44-3.44v3.44z" clip-rule="evenodd"/></svg>