<svg xmlns="http://www.w3.org/2000/svg" width="16" height="16" viewBox="0 0 24 24"><path d="M1.25 3c0-.966.784-1.75 1.75-1.75h6c.966 0 1.75.784 1.75 1.75v6A1.75 1.75 0 0 1 9 10.75H3A1.75 1.75 0 0 1 1.25 9zM3 2.75a.25.25 0 0 0-.25.25v6c0 .138.112.25.25.25h6A.25.25 0 0 0 9.25 9V3A.25.25 0 0 0 9 2.75zM13.25 3c0-.966.784-1.75 1.75-1.75h6c.966 0 1.75.784 1.75 1.75v6A1.75 1.75 0 0 1 21 10.75h-6A1.75 1.75 0 0 1 13.25 9zM15 2.75a.25.25 0 0 0-.25.25v6c0 .138.112.25.25.25h6a.25.25 0 0 0 .25-.25V3a.25.25 0 0 0-.25-.25zM1.25 15c0-.966.784-1.75 1.75-1.75h6c.966 0 1.75.784 1.75 1.75v6A1.75 1.75 0 0 1 9 22.75H3A1.75 1.75 0 0 1 1.25 21zM3 14.75a.25.25 0 0 0-.25.25v6c0 .138.112.25.25.25h6a.25.25 0 0 0 .25-.25v-6a.25.25 0 0 0-.25-.25zm10.25.5c0-.966.784-1.75 1.75-1.75h6c.966 0 1.75.784 1.75 1.75v6a1.75 1.75 0 0 1-1.75 1.5h-6A1.75 1.75 0 0 1 13.25 21v-6ZM15 15a.25.25 0 0 0-.25.25v6c0 .138.112.25.25.25h6a.25.25 0 0 0 .25-.25v-6A.25.25 0 0 0 21 15z"/></svg>